<?xml version="1.0" standalone="no"?>
<!DOCTYPE svg PUBLIC "-//W3C//DTD SVG 1.1//EN" "http://www.w3.org/Graphics/SVG/1.1/DTD/svg11.dtd" >
<svg xmlns="http://www.w3.org/2000/svg">
<metadata></metadata>
<defs>
<font id="Fette-MittelschriftRegular" horiz-adv-x="1024" >
<font-face units-per-em="2048" ascent="1638" descent="-410" />
<missing-glyph horiz-adv-x="614" />
<glyph horiz-adv-x="0" />
<glyph horiz-adv-x="2048" />
<glyph unicode=" "  horiz-adv-x="614" />
<glyph unicode="&#x09;" horiz-adv-x="614" />
<glyph unicode="&#xa0;" horiz-adv-x="614" />
<glyph unicode="!" horiz-adv-x="720" d="M240 1366h241l-71 -1022h-97zM264 0v195h195v-195h-195z" />
<glyph unicode="&#x22;" horiz-adv-x="745" d="M86 1366h227l-37 -547h-153zM434 1366h228l-37 -547h-156z" />
<glyph unicode="#" horiz-adv-x="1499" d="M168 416l63 159h215l76 191h-215l64 160h215l90 227h174l-90 -227h205l88 227h170l-93 -227h216l-62 -160h-217l-74 -191h211l-61 -159h-213l-90 -223l-172 -3l90 226h-203l-88 -226h-176l92 226h-215zM616 575h207l78 191h-205z" />
<glyph unicode="$" horiz-adv-x="1271" d="M106 446h199q8 -143 68 -208q86 -96 282 -97q315 0 316 228q0 106 -84 153q-49 27 -225 70q-262 63 -365 123q-158 92 -158 280q0 201 183 295q96 51 274 62v149h94v-149q217 -8 336 -116t117 -292h-189q-20 260 -323 260q-135 0 -214 -54t-79 -149q0 -104 88 -153 q57 -31 293 -88q193 -47 272.5 -91t126.5 -126t47 -176q0 -233 -245 -338q-88 -37 -230 -45v-177h-94v177q-489 23 -490 462z" />
<glyph unicode="%" horiz-adv-x="1550" d="M59 1034q0 150 87.5 241t228.5 91q137 0 221 -94t84 -246q0 -150 -86 -244t-225 -94t-224.5 95.5t-85.5 250.5zM180 1026q0 -244 187 -244q193 0 192 248q0 242 -188 242q-190 0 -191 -246zM342 -31l750 1407h110l-751 -1407h-109zM868 326q0 150 87.5 241.5t228.5 91.5 q137 0 221 -93t84 -244q0 -154 -85 -247t-224 -93q-143 0 -227.5 93t-84.5 251zM989 317q0 -242 189 -241q190 0 190 250q0 239 -188 239q-190 0 -191 -248z" />
<glyph unicode="&#x26;" horiz-adv-x="1478" d="M166 330q0 178 160 311q72 59 204 121q-102 123 -136 188.5t-34 139.5q0 125 98.5 215t237.5 90q147 0 249 -93.5t102 -230.5q0 -209 -259 -350l220 -293q67 101 98 244h184q-49 -233 -170 -389l215 -283h-237l-109 139q-184 -178 -424 -178q-170 0 -284.5 106.5 t-114.5 262.5zM383 332q0 -80 55.5 -135.5t136.5 -55.5q124 1 308 138l-252 337q-139 -82 -193.5 -144t-54.5 -140zM561 1087q0 -57 53 -135l74 -106q172 129 172 229q0 61 -44 103.5t-109 42.5q-59 0 -102.5 -39t-43.5 -95z" />
<glyph unicode="'" horiz-adv-x="405" d="M86 1366h233l-36 -547h-160z" />
<glyph unicode="(" horiz-adv-x="743" d="M215 684q0 432 297 780h80q-182 -377 -182 -770q0 -205 50 -420t132 -370h-80q-94 115 -143 198q-154 266 -154 582z" />
<glyph unicode=")" horiz-adv-x="741" d="M154 -96q84 154 134 371t50 419q0 393 -184 770h82q297 -346 296 -780q0 -319 -153 -582q-51 -88 -143 -198h-82z" />
<glyph unicode="*" horiz-adv-x="880" d="M104 1063l56 156l198 -68v215h174v-215l199 68l55 -156l-192 -74l121 -172l-137 -102l-132 172l-133 -172l-137 102l121 172z" />
<glyph unicode="+" d="M39 657v107h418v399h110v-399h420v-107h-420v-401h-110v401h-418z" />
<glyph unicode="," horiz-adv-x="450" d="M131 -147v342h195v-195z" />
<glyph unicode="-" horiz-adv-x="851" d="M133 438v195h584v-195h-584z" />
<glyph unicode="." horiz-adv-x="452" d="M129 0v193h197v-193h-197z" />
<glyph unicode="/" horiz-adv-x="733" d="M76 0l452 1366h136l-453 -1366h-135z" />
<glyph unicode="0" horiz-adv-x="1013" d="M117 399v576q0 170 112.5 286.5t276.5 116.5q104 0 195.5 -52t143.5 -140t52 -211v-576q0 -121 -47 -206q-53 -94 -144.5 -149.5t-197.5 -55.5q-217 0 -332 184q-59 96 -59 227zM311 399q0 -104 58.5 -160.5t138.5 -56.5q88 0 141 60.5t53 156.5v584q0 88 -55 144.5 t-139 56.5t-140.5 -60.5t-56.5 -148.5v-576z" />
<glyph unicode="1" horiz-adv-x="610" d="M80 1018v207l192 141h193v-1366h-193v1161z" />
<glyph unicode="2" horiz-adv-x="948" d="M78 0v182l549 692q37 47 37 117q0 78 -58.5 135.5t-136.5 57.5q-82 0 -137.5 -55.5t-57.5 -139.5h-196q0 164 112.5 276.5t278.5 112.5q162 0 275.5 -114.5t113.5 -278.5q0 -131 -84 -237l-438 -551h522v-197h-780z" />
<glyph unicode="3" horiz-adv-x="940" d="M57 340h197q18 -72 72.5 -115t126.5 -43q88 0 146 61.5t58 157.5q0 115 -84 181q-51 41 -147 41h-59v170h53q92 0 141 34q84 59 84 160q0 82 -57.5 139.5t-138.5 57.5q-72 0 -126.5 -45t-68.5 -115h-197q14 152 125 253t264 101q162 0 279 -113.5t117 -271.5 q0 -182 -146 -282q158 -111 158 -312q0 -172 -115.5 -291.5t-283.5 -119.5q-154 0 -267.5 101t-130.5 251z" />
<glyph unicode="4" horiz-adv-x="1011" d="M59 207v170l469 989h220l-467 -975h352v387h194v-387h107v-184h-107v-207h-194v207h-574z" />
<glyph unicode="5" horiz-adv-x="972" d="M100 340h197q41 -158 190 -158q86 0 140.5 57.5t54.5 147.5v145q0 92 -55.5 151.5t-139.5 59.5q-121 0 -176 -110h-188v733h729v-197h-547v-307q100 76 223 76q145 0 248 -106.5t103 -262.5v-198q0 -158 -115 -270.5t-275 -112.5q-154 0 -264 100t-125 252z" />
<glyph unicode="6" horiz-adv-x="923" d="M68 397v41q0 63 12 103.5t61 140.5l340 684h221l-290 -582q68 25 123 25q180 0 270 -158q43 -76 43 -182v-72q0 -172 -98 -280q-117 -129 -293 -129q-166 0 -277.5 117.5t-111.5 291.5zM264 379q0 -82 55.5 -137.5t137.5 -55.5q86 0 141 57.5t55 153.5v41q0 86 -55 142.5 t-139 56.5q-82 0 -138.5 -57.5t-56.5 -141.5v-59z" />
<glyph unicode="7" horiz-adv-x="909" d="M86 975v391h778v-186l-463 -1180h-219l467 1171h-368v-196h-195z" />
<glyph unicode="8" horiz-adv-x="987" d="M80 397q0 184 160 314q-135 106 -136 280q0 160 115 273.5t277 113.5t275.5 -113.5t113.5 -275.5q0 -163 -133 -278q156 -135 155 -310q0 -170 -121.5 -291.5t-293.5 -121.5q-170 0 -291 120.5t-121 288.5zM276 406q0 -94 62.5 -159t155.5 -65q92 0 155.5 63.5 t63.5 155.5t-63.5 157t-153.5 65t-155 -64.5t-65 -152.5zM301 989q0 -84 55.5 -140t137.5 -56t139 56t57 138t-57 139.5t-137 57.5t-137.5 -57.5t-57.5 -137.5z" />
<glyph unicode="9" horiz-adv-x="911" d="M76 905v70q0 170 112.5 286.5t278.5 116.5t277.5 -115.5t111.5 -287.5v-53q0 -80 -63 -209l-353 -713h-219l291 586q-76 -25 -123 -25q-154 0 -252 131q-61 82 -61 213zM272 958q0 -98 39 -147q61 -78 154 -78q80 0 139 62q39 41 49 84q6 26 6 96v20q0 78 -57 133.5 t-137 55.5t-136.5 -55.5t-56.5 -133.5v-37z" />
<glyph unicode=":" horiz-adv-x="731" d="M266 618v193h197v-193h-197zM268 178v193h197v-193h-197z" />
<glyph unicode=";" horiz-adv-x="735" d="M268 346v193h197v-193h-197zM272 -143v342h195v-195z" />
<glyph unicode="&#x3c;" d="M68 598v180l886 434v-211l-661 -313l661 -317v-209z" />
<glyph unicode="=" d="M39 510v104h948v-104h-948zM39 805v104h948v-104h-948z" />
<glyph unicode="&#x3e;" d="M70 162v211l661 315l-659 316l-2 208l886 -434v-180z" />
<glyph unicode="?" horiz-adv-x="1044" d="M150 975q0 147 59 237q111 166 305 166q152 0 259.5 -107.5t107.5 -258.5q0 -115 -76 -221l-119 -166q-53 -74 -62.5 -97.5t-9.5 -85.5v-100h-194v100q0 90 22 150q18 51 76 131l115 160q53 74 53 127q0 74 -48 124t-118 50q-57 0 -104 -34t-62 -85q-8 -29 -8 -90h-196z M420 0v195h194v-195h-194z" />
<glyph unicode="@" horiz-adv-x="1869" d="M193 653q0 311 224 537.5t556 226.5q291 0 486.5 -173t195.5 -431q0 -229 -158 -397t-371 -168q-139 0 -145 108q-129 -104 -233 -104q-100 0 -161 69.5t-61 184.5q0 217 135.5 389t305.5 172q76 0 147 -63l10 28h232l-193 -502q-23 -59 -22 -84q0 -35 47 -34 q115 0 223 149q84 115 84 252q0 205 -162 326q-170 127 -368 127q-250 0 -431.5 -182.5t-181.5 -436.5q0 -258 182.5 -433t450.5 -175q215 0 379 115q70 49 149 159h138q-80 -186 -207 -280q-199 -147 -469 -148q-332 0 -557 221.5t-225 546.5zM768 457q0 -45 37 -45 q33 0 81 71.5t96 189.5t56 189q5 37 -30 41q-57 6 -136 -135q-104 -188 -104 -311z" />
<glyph unicode="A" horiz-adv-x="1134" d="M-14 0l503 1366h170l496 -1366h-217l-104 305h-523l-104 -305h-221zM371 489h401l-199 596z" />
<glyph unicode="B" horiz-adv-x="1173" d="M137 0v1366h520q133 0 218.5 -45t136.5 -134t51 -192q0 -172 -156 -295q180 -109 180 -321q0 -102 -51 -191.5t-139 -138.5t-229 -49h-531zM342 197h322q104 0 165.5 56t61.5 153q0 127 -109 182q-43 22 -110 22h-6h-324v-413zM342 795h320q90 0 148 55t58 139 q0 86 -59 141.5t-150 55.5h-317v-391z" />
<glyph unicode="C" horiz-adv-x="1136" d="M104 487v410q0 199 144.5 340t345.5 141q178 0 308 -109.5t171 -293.5h-213q-31 90 -101.5 143t-164.5 53q-123 0 -202 -81.5t-79 -208.5v-394q0 -125 80 -207.5t201 -82.5h2q190 0 264 196h213q-25 -172 -164 -288.5t-317 -116.5q-129 0 -241.5 63.5t-179.5 175 t-67 260.5z" />
<glyph unicode="D" horiz-adv-x="1212" d="M137 0v1366h492q201 0 342 -141.5t141 -343.5v-404q0 -193 -154 -342q-137 -135 -340 -135h-481zM344 197h283q115 0 195.5 81.5t80.5 198.5v404q0 125 -77.5 207.5t-196.5 82.5h-285v-974z" />
<glyph unicode="E" horiz-adv-x="1110" d="M137 0v1366h877v-190h-670v-392h571v-182h-571v-403h670v-199h-877z" />
<glyph unicode="F" horiz-adv-x="1044" d="M137 0v1366h877v-195h-668v-399h572v-182h-572v-590h-209z" />
<glyph unicode="G" horiz-adv-x="1173" d="M104 496v405q0 199 143.5 338t346.5 139q182 0 314 -110.5t169 -292.5h-209q-72 196 -268 196h-2q-119 0 -203 -78.5t-84 -191.5v-393q0 -129 58 -203q85 -108 217 -108h2q90 0 169 57t101 143q10 37 10 111v53h-276v193h485v-273q0 -205 -142 -349t-343 -144 q-162 0 -297 101t-176 255q-14 55 -15 152z" />
<glyph unicode="H" horiz-adv-x="1247" d="M137 0v1366h209v-582h559v582h207v-1366h-207v600h-559v-600h-209z" />
<glyph unicode="I" horiz-adv-x="479" d="M137 0v1366h207v-1366h-207z" />
<glyph unicode="J" horiz-adv-x="845" d="M-63 168l165 123q76 -94 187 -94q154 0 213 139q18 43 18 158v872h207v-901q0 -178 -82 -293q-133 -184 -354 -184q-215 0 -354 180z" />
<glyph unicode="K" horiz-adv-x="1181" d="M137 0v1366h207v-698l576 698h243l-440 -535l485 -831h-245l-373 668l-246 -250v-418h-207z" />
<glyph unicode="L" horiz-adv-x="1017" d="M137 0v1366h207v-1169h672v-197h-879z" />
<glyph unicode="M" horiz-adv-x="1443" d="M137 0v1366h195l391 -889l393 889h193v-1366h-205v866l-297 -669h-170l-293 669v-866h-207z" />
<glyph unicode="N" horiz-adv-x="1296" d="M137 0v1366h197l618 -973v973h207v-1366h-192l-623 975v-975h-207z" />
<glyph unicode="O" horiz-adv-x="1181" d="M104 492v395q0 205 141.5 348t344.5 143q209 0 349 -141t140 -350v-428q0 -145 -100 -279q-144 -192 -385 -192h-2q-131 0 -245 66.5t-178.5 179.5t-64.5 258zM311 477q0 -115 82 -197.5t199 -82.5q119 0 199.5 85t80.5 210v368q0 76 -6 103.5t-35 72.5q-82 135 -239 135 q-119 0 -200 -81.5t-81 -202.5v-410z" />
<glyph unicode="P" horiz-adv-x="1116" d="M137 0v1366h527q182 0 304 -119t122 -295q0 -113 -58.5 -212t-156 -151t-218.5 -52h-311v-537h-209zM346 733h311q94 0 160 63.5t66 155.5t-65.5 157t-158.5 65h-313v-441z" />
<glyph unicode="Q" horiz-adv-x="1189" d="M100 510v379q0 203 143.5 346t348.5 143q203 0 344 -142t141 -347v-397q0 -123 -53 -232l184 -149l-123 -156l-182 151q-144 -118 -316 -118h-3q-102 0 -205 48t-170 130q-109 133 -109 344zM307 510q0 -127 49 -195q87 -120 234 -120h2q73 0 145 47l-164 137l123 149 l158 -129q14 41 14 93v397q0 121 -79.5 201.5t-198.5 80.5t-201 -81.5t-82 -200.5v-379z" />
<glyph unicode="R" horiz-adv-x="1167" d="M137 0v1366h553q170 0 283.5 -111.5t113.5 -279.5q0 -125 -68.5 -221.5t-193.5 -143.5l314 -610h-244l-283 588h-266v-588h-209zM346 772h326q98 0 159.5 57.5t61.5 149.5q0 88 -60.5 147.5t-150.5 59.5h-336v-414z" />
<glyph unicode="S" horiz-adv-x="1101" d="M55 162l131 162q172 -127 373 -127q133 0 207 51t74 143q0 100 -76 152q-59 39 -211 47q-172 8 -268 69q-178 115 -179 328q0 174 123 282.5t320 108.5q233 0 440 -131l-112 -172q-154 96 -338 96q-104 0 -165 -49t-61 -133q0 -98 82 -151q49 -33 180 -41 q186 -12 287 -70q84 -47 135.5 -140t51.5 -194q0 -143 -93 -254q-124 -151 -391 -151h-4q-301 0 -506 174z" />
<glyph unicode="T" horiz-adv-x="978" d="M8 1184v182h963v-182h-375v-1184h-209v1184h-379z" />
<glyph unicode="U" horiz-adv-x="1234" d="M129 479v887h207v-887q0 -117 83 -199.5t199 -82.5q121 0 199 79.5t78 202.5v887h209v-887q0 -203 -143.5 -347t-344.5 -144t-344 144t-143 347z" />
<glyph unicode="V" horiz-adv-x="1054" d="M-6 1366h217l319 -1047l316 1047h219l-447 -1366h-172z" />
<glyph unicode="W" horiz-adv-x="1613" d="M29 1366h219l221 -969l266 969h148l268 -969l221 969h217l-340 -1366h-182l-258 989l-256 -989h-184z" />
<glyph unicode="X" horiz-adv-x="1073" d="M8 0l422 705l-399 661h243l269 -473l268 473h244l-398 -661l422 -705h-241l-295 514l-291 -514h-244z" />
<glyph unicode="Y" horiz-adv-x="966" d="M-25 1366h222l292 -604l293 604h217l-411 -801v-565h-197v565z" />
<glyph unicode="Z" horiz-adv-x="1032" d="M76 0v174l620 1012h-596v180h852v-158l-622 -1011h622v-197h-876z" />
<glyph unicode="[" d="M395 -332v1698h365v-147h-197v-1405h197v-146h-365z" />
<glyph unicode="\" horiz-adv-x="733" d="M70 1366h135l452 -1366h-135z" />
<glyph unicode="]" d="M264 -184h197v1405h-197v145h365v-1698h-365v148z" />
<glyph unicode="^" d="M53 750l340 620h238l342 -620h-195l-266 477l-266 -477h-193z" />
<glyph unicode="_" d="M0 -135h1024v-133h-1024v133z" />
<glyph unicode="`" d="M244 1401h192l213 -279h-125z" />
<glyph unicode="a" horiz-adv-x="940" d="M51 289q0 84 47 156.5t123 109.5q57 27 158 27h258v73q0 76 -29 101q-43 39 -162 39q-76 0 -104 -9q-53 -12 -80 -59l-153 123q90 137 337 137q190 0 285 -82q102 -88 103 -227v-678h-197v96q-65 -108 -231 -108h-3q-156 0 -254 84t-98 217zM236 301q0 -129 198 -129 q147 0 184 59q18 23 19 107v84h-254q-61 0 -88 -14q-59 -33 -59 -107z" />
<glyph unicode="b" horiz-adv-x="972" d="M109 0v1366h194v-502q115 123 256 123q137 0 233.5 -99.5t96.5 -242.5v-299q0 -158 -86 -252q-96 -106 -242 -106q-158 0 -258 123v-111h-194zM303 401q0 -76 25 -118q57 -100 172 -101q78 0 135 55.5t57 149.5v205q0 88 -55 144.5t-139 56.5t-139.5 -57.5t-55.5 -143.5 v-191z" />
<glyph unicode="c" horiz-adv-x="884" d="M59 485q0 236 125 363q135 139 324 139q195 0 334 -156l-150 -126q-76 86 -188 86q-115 0 -183.5 -83t-68.5 -225q0 -137 69.5 -220t186.5 -83q102 0 184 90l150 -120q-127 -162 -340 -162q-217 0 -352 178q-90 119 -91 319z" />
<glyph unicode="d" horiz-adv-x="972" d="M86 346v279q0 102 18 149q37 96 124 154.5t190 58.5q147 0 254 -123v502h194v-1366h-194v106q-110 -118 -252 -118h-2q-193 0 -289 164q-43 74 -43 194zM281 391q0 -92 54 -150.5t142 -58.5q119 0 174 105q21 38 21 104v197q0 88 -55.5 145.5t-139.5 57.5 q-86 0 -141 -57.5t-55 -145.5v-197z" />
<glyph unicode="e" horiz-adv-x="948" d="M74 418v172q0 164 118.5 280.5t284.5 116.5q174 0 288 -119.5t114 -302.5v-147h-609v-27q0 -90 65.5 -149.5t166.5 -59.5q119 0 205 94l149 -126q-135 -162 -356 -162q-236 0 -359 184q-68 100 -67 246zM268 590h416q-2 90 -61.5 148.5t-145.5 58.5q-88 0 -144.5 -56.5 t-64.5 -150.5z" />
<glyph unicode="f" horiz-adv-x="555" d="M51 819v156h96v119q0 92 25 139q49 96 162 125q33 8 96 8h109v-178h-107q-76 0 -84 -37q-4 -14 -4 -43v-133h195v-156h-195v-819h-197v819h-96z" />
<glyph unicode="g" horiz-adv-x="968" d="M80 336v299q0 129 61 215q98 137 269 137q145 0 254 -121v109h196v-940q0 -150 -57 -242q-120 -194 -352 -194h-2q-205 0 -347 157l152 127q92 -94 190 -94q139 0 195 105q25 45 25 143v72q-104 -121 -256 -121q-141 0 -234.5 99t-93.5 249zM276 375q0 -78 58.5 -135.5 t136.5 -57.5q119 0 174 109q19 36 19 104v199q0 84 -55.5 141.5t-137.5 57.5t-138.5 -57.5t-56.5 -141.5v-219z" />
<glyph unicode="h" horiz-adv-x="993" d="M109 0v1366h194v-498q113 119 256 119q166 0 266 -137q63 -86 64 -209v-641h-197v592q0 90 -54 147.5t-138 57.5q-113 0 -174 -105q-23 -41 -23 -114v-578h-194z" />
<glyph unicode="i" horiz-adv-x="409" d="M109 0v975h194v-975h-194zM109 1174v192h194v-192h-194z" />
<glyph unicode="j" horiz-adv-x="417" d="M-57 -203h51q66 0 93.5 30t27.5 112v1036h194v-1057q0 -96 -16 -135q-72 -172 -277 -172h-73v186zM115 1176v190h194v-190h-194z" />
<glyph unicode="k" horiz-adv-x="948" d="M109 0v1366h194v-850l377 459h233l-327 -375l377 -600h-244l-256 453l-160 -170v-283h-194z" />
<glyph unicode="l" horiz-adv-x="479" d="M106 256v1110h195v-1075q0 -70 16.5 -88.5t81.5 -18.5h47v-184h-116q-111 0 -176 82q-31 39 -39.5 68.5t-8.5 105.5z" />
<glyph unicode="m" horiz-adv-x="1574" d="M109 0v975h194v-107q102 119 258 119q170 0 264 -131q119 131 287 131q182 0 293 -151q70 -94 70 -232v-604h-193v578q0 80 -31 127q-59 90 -164 90q-88 0 -143 -60.5t-55 -156.5v-578h-195v578q0 102 -57 159.5t-137 57.5q-63 0 -118.5 -40t-72.5 -100q-6 -27 -6 -77 v-578h-194z" />
<glyph unicode="n" horiz-adv-x="991" d="M109 0v975h196v-107q100 119 258 119q137 0 231.5 -96t94.5 -236v-655h-195v602q0 78 -57 135.5t-135 57.5t-137.5 -58.5t-59.5 -134.5v-602h-196z" />
<glyph unicode="o" horiz-adv-x="952" d="M76 387v207q0 162 118.5 277.5t284.5 115.5q164 0 283 -116.5t119 -276.5v-207q0 -164 -119 -281.5t-283 -117.5q-168 0 -285.5 116.5t-117.5 282.5zM270 387q0 -84 61.5 -144.5t147.5 -60.5q82 0 144.5 61.5t62.5 143.5v207q0 80 -61.5 139.5t-145.5 59.5t-146.5 -59.5 t-62.5 -139.5v-207z" />
<glyph unicode="p" horiz-adv-x="972" d="M109 -389v1364h194v-109q113 121 260 121q162 0 262 -135q41 -57 54 -102q10 -37 10 -115v-301q0 -121 -53 -199q-100 -147 -275 -147q-147 0 -258 123v-500h-194zM303 387q0 -90 55.5 -147.5t143.5 -57.5q84 0 138 58.5t54 146.5v213q0 82 -56 137.5t-140 55.5 q-82 0 -138.5 -55.5t-56.5 -137.5v-213z" />
<glyph unicode="q" horiz-adv-x="972" d="M86 328v329q0 137 97.5 233.5t234.5 96.5q145 0 254 -123v111h194v-1364h-194v495q-105 -118 -254 -118h-2q-186 0 -285 162q-45 74 -45 178zM281 403q0 -88 26 -131q55 -90 168 -90q61 0 114.5 35t72.5 90q10 30 10 96v183q0 88 -56.5 147.5t-138.5 59.5 q-80 0 -138 -57.5t-58 -137.5v-195z" />
<glyph unicode="r" horiz-adv-x="753" d="M109 0v975h194v-107q106 119 256 119q121 0 209 -74l-137 -170q-63 49 -129 50q-86 0 -142.5 -57.5t-56.5 -145.5v-590h-194z" />
<glyph unicode="s" horiz-adv-x="925" d="M37 158l139 139q119 -115 289 -115q205 0 205 115q0 53 -38 75.5t-129 24.5t-138 9q-78 10 -129 40q-137 82 -138 242q0 141 113 230q87 69 242 69h4q217 0 385 -125l-121 -160q-111 90 -272 91q-154 0 -154 -103q0 -92 141 -96q211 -6 279 -43q151 -81 151 -252 q0 -141 -109.5 -226t-289.5 -85q-266 0 -430 170z" />
<glyph unicode="t" horiz-adv-x="563" d="M47 817v158h96v293h195v-293h147v-158h-147v-563q0 -45 22 -59q16 -10 64 -11h61v-184h-88q-141 0 -209 84q-45 55 -45 170v563h-96z" />
<glyph unicode="u" horiz-adv-x="993" d="M104 346v629h195v-563q0 -90 27 -133q59 -94 170 -95q121 0 174 105q20 41 20 135v551h195v-975h-195v111q-100 -123 -256 -123q-96 0 -180 55t-125 143q-25 55 -25 160z" />
<glyph unicode="v" horiz-adv-x="862" d="M-6 975h207l233 -680l232 680h206l-352 -975h-170z" />
<glyph unicode="w" horiz-adv-x="1392" d="M18 975h205l185 -678l219 678h145l219 -678l185 678h206l-305 -975h-170l-207 684l-208 -684h-170z" />
<glyph unicode="x" horiz-adv-x="866" d="M-10 0l332 502l-316 473h230l194 -311l203 311h231l-323 -473l323 -502h-231l-203 332l-209 -332h-231z" />
<glyph unicode="y" horiz-adv-x="870" d="M2 975h207l229 -678l234 678h209l-416 -1165q-37 -104 -105.5 -151.5t-179.5 -47.5h-59v184h31q68 0 97.5 18.5t51.5 80.5l51 145z" />
<glyph unicode="z" horiz-adv-x="864" d="M61 0v160l488 645h-461v170h705v-146l-486 -645h486v-184h-732z" />
<glyph unicode="{" d="M250 424v166q117 31 117 182v338q0 170 92 233q68 47 272 48h41v-191q-117 -2 -157 -38t-40 -142v-281q0 -98 -24.5 -149t-89.5 -88q63 -37 88.5 -90.5t25.5 -149.5v-278q0 -113 39 -150t158 -37v-180q-16 -2 -39 -2q-113 0 -155 6q-92 12 -140 60q-72 70 -71 237v313 q0 90 -27 133.5t-90 59.5z" />
<glyph unicode="|" d="M406 -342v1708h212v-1708h-212z" />
<glyph unicode="}" d="M252 -193q117 2 157 38.5t40 142.5v280q0 98 24.5 148.5t89.5 87.5q-63 37 -88.5 90t-25.5 151v277q0 113 -39 149.5t-158 38.5v181h39q113 0 155 -7q92 -12 140 -59q72 -70 71 -238v-313q0 -162 117 -192v-164q-117 -31 -117 -182v-340q0 -186 -110 -246 q-66 -35 -252 -35q-25 0 -43 2v190z" />
<glyph unicode="~" horiz-adv-x="1366" d="M193 1255q109 248 286 248q78 0 236 -76q131 -63 178 -63q96 0 176 143l107 -86q-104 -246 -306 -245q-51 0 -122 30q-57 27 -115 56q-106 51 -162 51q-90 -1 -170 -144z" />
<glyph unicode="&#xa1;" horiz-adv-x="489" d="M127 731v266h235v-266h-235zM131 -4l57 602h113l57 -600v-365h-227v363z" />
<glyph unicode="&#xa2;" horiz-adv-x="1241" d="M195 690q0 279 184 420q100 76 248 96v170h94v-170q164 -8 270.5 -104t124.5 -248h-180q-20 109 -80 158q-72 59 -176 59q-133 0 -214 -104.5t-81 -274.5q0 -172 80 -273.5t217 -101.5q106 0 176 68.5t82 185.5h180q-4 -158 -118.5 -269.5t-280.5 -119.5v-192h-94v192 q-174 20 -283 127q-150 147 -149 381z" />
<glyph unicode="&#xa3;" horiz-adv-x="1249" d="M168 610v84h127q-106 174 -107 279q0 186 166 303q127 90 338 90q305 0 426 -195q63 -102 70 -292h-195q-2 141 -55 213q-76 104 -240 104q-127 0 -207.5 -62.5t-80.5 -158.5q0 -78 75 -201q16 -27 43 -80h248v-84h-219q16 -84 16 -125q0 -117 -69 -206q-16 -20 -98 -101 l30 15q82 37 152 36q61 0 221 -55q53 -18 100 -18q129 0 234 127l78 -170q-152 -145 -312 -146q-82 0 -198 43q-150 55 -213 56q-94 0 -209 -84l-109 157q199 133 199 320q0 72 -39 151h-172z" />
<glyph unicode="&#xa4;" horiz-adv-x="1337" d="M117 567l35 82h102v82h-137l35 82h102v84q0 199 144.5 340t344.5 141q178 0 308.5 -109.5t171.5 -293.5h-213q-31 90 -101.5 143t-165.5 53q-123 0 -201.5 -81.5t-78.5 -208.5v-68h551l-35 -82h-516v-82h481l-35 -82h-446v-80q0 -125 80 -207.5t200 -82.5q193 0 267 196 h213q-25 -172 -164 -288.5t-318 -116.5q-129 0 -241.5 63.5t-179 175t-66.5 260.5v80h-137z" />
<glyph unicode="&#xa5;" horiz-adv-x="1239" d="M23 1362h231l364 -647l365 651h236l-277 -459h250v-88h-299l-141 -235h376v-90h-403v-494h-217v494h-383v90h358l-141 235h-295v88h246z" />
<glyph unicode="&#xa6;" d="M406 313h212v-655h-212v655zM406 668v698h212v-698h-212z" />
<glyph unicode="&#xa7;" horiz-adv-x="1169" d="M111 604q0 190 204 268q-92 84 -92 195q0 125 101.5 204t261.5 79q172 0 273.5 -94.5t107.5 -258.5h-166q-6 213 -215 213q-82 0 -132.5 -42t-50.5 -107q0 -57 39 -96q33 -33 152 -91q289 -139 382 -223t93 -200q0 -90 -56.5 -164t-150.5 -103q106 -94 107 -209 q0 -139 -104.5 -223t-274.5 -84q-180 0 -285.5 95.5t-105.5 256.5v23h163q6 -94 37 -141q59 -88 187 -88q92 0 147 45t55 118q0 74 -59 123.5t-285 159.5q-201 98 -267 168t-66 176zM272 623q0 -55 63.5 -110.5t242.5 -150.5q78 -41 98 -53q55 -31 84 -43q63 16 104 61.5 t41 98.5q0 55 -37 94t-159 113q-188 112 -297 153q-139 -41 -140 -163z" />
<glyph unicode="&#xa8;" d="M242 1163v228h170v-228h-170zM610 1163v228h170v-228h-170z" />
<glyph unicode="&#xa9;" horiz-adv-x="1593" d="M90 682q0 297 208 503t509 206q285 0 490.5 -209t205.5 -500q0 -293 -206.5 -500t-499.5 -207q-291 0 -499 208t-208 499zM197 680q0 -250 176 -429t424 -179t424 179t176 431q0 250 -174 430t-418 180q-254 0 -431 -178t-177 -434zM412 686q0 184 110.5 301t284.5 117 q141 0 241.5 -81t110.5 -206h-102q-43 174 -250 174q-119 0 -191.5 -83t-72.5 -222q0 -137 71.5 -220t190.5 -83q109 0 178.5 59.5t83.5 163.5h104q-12 -152 -113.5 -245t-256.5 -93q-174 0 -281.5 116t-107.5 302z" />
<glyph unicode="&#xaa;" horiz-adv-x="710" d="M59 600v96h611v-96h-611zM68 961q0 82 57 124q33 25 65.5 33t153.5 23q68 8 102 26q20 10 21 45q0 96 -125 97q-117 0 -129 -113h-117q12 199 252 199q106 0 172 -49q41 -31 64 -111q6 -23 6 -279q0 -112 39 -145h-142q-10 25 -16 82q-53 -59 -86 -76q-41 -23 -111 -22 q-96 0 -151 45t-55 121zM180 967q0 -92 115 -93q162 0 174 195l2 31q-29 -16 -48.5 -20.5t-109.5 -12.5q-133 -12 -133 -100z" />
<glyph unicode="&#xab;" horiz-adv-x="563" d="M63 596l390 387v-192l-195 -195l195 -197v-194z" />
<glyph unicode="&#xac;" d="M68 391v187h886v-578h-206v391h-680z" />
<glyph unicode="&#xad;" horiz-adv-x="851" d="M133 438v195h584v-195h-584z" />
<glyph unicode="&#xae;" horiz-adv-x="1593" d="M90 682q0 297 208 503t509 206q285 0 490.5 -209t205.5 -500q0 -293 -206.5 -500t-499.5 -207q-291 0 -499 208t-208 499zM197 680q0 -250 176 -429t424 -179t424 179t176 431q0 250 -174 430t-418 180q-256 0 -432 -177t-176 -435zM496 281v800h338q285 0 284 -221 q0 -137 -141 -194q76 -29 101.5 -79t29.5 -179q2 -92 20 -127h-124q-14 25 -22.5 151.5t-52.5 158.5t-141 32h-161v-342h-131zM627 705h168q195 0 194 147q0 143 -178 143h-184v-290z" />
<glyph unicode="&#xaf;" d="M0 1634v129h1024v-129h-1024z" />
<glyph unicode="&#xb0;" d="M211 1065q0 125 88 213t213 88t212 -89t87 -216q0 -123 -88 -211t-211 -88q-125 0 -213 89t-88 214zM303 1065q0 -88 61.5 -150.5t147.5 -62.5q84 0 145.5 62.5t61.5 144.5q0 90 -61.5 153.5t-149.5 63.5q-84 0 -144.5 -62.5t-60.5 -148.5z" />
<glyph unicode="&#xb1;" d="M39 90v107h948v-107h-948zM39 676v106h418v400h110v-400h420v-106h-420v-389h-110v389h-418z" />
<glyph unicode="&#xb2;" horiz-adv-x="622" d="M57 545v119l342 411q20 20 21 64q0 45 -33 76.5t-80 31.5q-49 0 -80.5 -32.5t-31.5 -84.5h-138v17q0 92 75 159.5t175 67.5q104 0 177 -69.5t73 -169.5q0 -82 -53 -146l-262 -313h315v-131h-500z" />
<glyph unicode="&#xb3;" horiz-adv-x="618" d="M45 760h137q23 -92 119 -92q51 0 85 34.5t34 88.5q0 123 -137 122h-45v115h41q131 0 131 109q0 45 -34 76.5t-81 31.5q-97 0 -113 -94h-137q8 98 79 160.5t171 62.5q104 0 179 -69.5t75 -165.5q0 -104 -86 -166q94 -61 94 -185q0 -104 -74.5 -176.5t-181.5 -72.5 q-100 0 -173 62.5t-83 158.5z" />
<glyph unicode="&#xb4;" d="M395 1122l211 279h193l-281 -279h-123z" />
<glyph unicode="&#xb6;" horiz-adv-x="1179" d="M74 1004q0 215 172 309q96 53 276 53h498v-86h-115v-1511h-108v1511h-209v-1511h-109v878h-33q-166 0 -269 99.5t-103 257.5z" />
<glyph unicode="&#xb7;" horiz-adv-x="436" d="M119 365v282h200v-282h-200z" />
<glyph unicode="&#xb8;" d="M297 -348l29 61q94 -41 174 -41q51 0 83.5 24.5t32.5 63.5q0 80 -98 80q-39 0 -92 -20l-39 33l100 147h78l-73 -109q49 10 81 11q72 0 117 -37t45 -96q0 -74 -61.5 -120t-157.5 -46q-104 0 -219 49z" />
<glyph unicode="&#xb9;" horiz-adv-x="413" d="M59 1139v139l127 88h129v-819h-135v676z" />
<glyph unicode="&#xba;" horiz-adv-x="710" d="M49 600v96h610v-96h-610zM63 1092q0 135 83 218t216 83q125 0 205 -85t80 -218q0 -131 -82 -213t-209 -82q-129 0 -211 83t-82 214zM188 1092q0 -96 44 -151.5t122 -55.5t123 55t45 152q0 96 -44 153.5t-120 57.5q-80 0 -125 -56.5t-45 -154.5z" />
<glyph unicode="&#xbb;" horiz-adv-x="567" d="M125 205v194l194 197l-194 195v192l389 -387z" />
<glyph unicode="&#xbc;" horiz-adv-x="1347" d="M59 1139v139l127 88h129v-819h-135v676zM123 0l743 1366h111l-746 -1366h-108zM731 123v108l293 588h154l-289 -573h196v227h138v-227h67v-123h-67v-123h-138v123h-354z" />
<glyph unicode="&#xbd;" horiz-adv-x="1308" d="M59 1139v139l127 88h129v-819h-135v676zM123 0l743 1366h111l-746 -1366h-108zM743 0v119l342 409q20 25 21 64q0 43 -34 74.5t-79 31.5q-49 0 -80.5 -31.5t-31.5 -82.5h-138v16q0 90 75 157.5t175 67.5q104 0 177 -68.5t73 -168.5q0 -82 -53 -146l-262 -311h315v-131 h-500z" />
<glyph unicode="&#xbe;" horiz-adv-x="1552" d="M45 760h137q23 -92 119 -92q51 0 85 34.5t34 88.5q0 123 -137 122h-45v115h41q131 0 131 109q0 45 -34 76.5t-81 31.5q-97 0 -113 -94h-137q8 98 79 160.5t171 62.5q104 0 179 -69.5t75 -165.5q0 -104 -86 -166q94 -61 94 -185q0 -104 -74.5 -176.5t-181.5 -72.5 q-100 0 -173 62.5t-83 158.5zM328 0l745 1366h109l-746 -1366h-108zM938 123v108l293 588h153l-288 -573h196v227h138v-227h65v-123h-65v-123h-138v123h-354z" />
<glyph unicode="&#xbf;" horiz-adv-x="1042" d="M72 -27q0 100 49 174t176 168q98 72 121.5 117t23.5 156h183q2 -166 -32 -230.5t-175 -173.5q-82 -61 -109.5 -111t-27.5 -102q0 -86 65.5 -143t163.5 -57q166 0 233 129q27 53 33 172h201q-6 -223 -128 -345t-339 -122q-193 0 -315.5 103.5t-122.5 264.5zM434 721v280 h201v-280h-201z" />
<glyph unicode="&#xc0;" horiz-adv-x="1134" d="M-14 0l503 1366h170l496 -1366h-217l-104 305h-523l-104 -305h-221zM215 1735h213l240 -256h-148zM371 489h401l-199 596z" />
<glyph unicode="&#xc1;" horiz-adv-x="1134" d="M-14 0l503 1366h170l496 -1366h-217l-104 305h-523l-104 -305h-221zM371 489h401l-199 596zM508 1479l237 256h216l-310 -256h-143z" />
<glyph unicode="&#xc2;" horiz-adv-x="1134" d="M-14 0l503 1366h170l496 -1366h-217l-104 305h-523l-104 -305h-221zM250 1483l244 272h180l241 -272h-157l-178 194l-174 -194h-156zM371 489h401l-199 596z" />
<glyph unicode="&#xc3;" horiz-adv-x="1134" d="M-14 0l503 1366h170l496 -1366h-217l-104 305h-523l-104 -305h-221zM283 1505q14 94 65 150.5t123 56.5q55 0 129 -43q88 -51 127 -51q74 0 92 92h88q-31 -197 -164 -197q-51 0 -178 60q-61 29 -98 29q-78 0 -94 -97h-90zM371 489h401l-199 596z" />
<glyph unicode="&#xc4;" horiz-adv-x="1134" d="M-14 0l503 1366h170l496 -1366h-217l-104 305h-523l-104 -305h-221zM285 1466v195h194v-195h-194zM371 489h401l-199 596zM674 1466v195h194v-195h-194z" />
<glyph unicode="&#xc5;" horiz-adv-x="1134" d="M-14 0l503 1366h170l496 -1366h-217l-104 305h-523l-104 -305h-221zM371 489h401l-199 596zM371 1659q0 88 61.5 148.5t151.5 60.5q84 0 145.5 -62.5t61.5 -146.5q0 -88 -61.5 -149.5t-147.5 -61.5q-88 0 -149.5 61.5t-61.5 149.5zM455 1659q0 -53 36.5 -90t90.5 -37 q51 0 88 38t37 89t-37 88t-88 37q-53 0 -90 -37t-37 -88z" />
<glyph unicode="&#xc6;" horiz-adv-x="1921" d="M-16 0l999 1366h842v-190h-670v-392h571v-182h-571v-403h670v-199h-881v305h-524l-213 -305h-223zM549 489h395v584z" />
<glyph unicode="&#xc7;" horiz-adv-x="1411" d="M84 676q0 315 185.5 519t469.5 204q281 0 455 -193q104 -115 137 -297h-211q-27 145 -129 229.5t-254 84.5q-197 0 -317.5 -148.5t-120.5 -390.5q0 -244 119 -391.5t313 -147.5q168 0 279.5 107.5t128.5 284.5h211q-18 -250 -185.5 -406t-425.5 -162l-57 -82q57 10 84 11 q76 0 124 -39t48 -103q0 -76 -62.5 -124t-164.5 -48q-113 0 -236 51l31 68q98 -45 182 -45q53 0 88 25.5t35 66.5q0 80 -104 80q-43 0 -97 -20l-41 36l86 127q-254 25 -412.5 220.5t-158.5 482.5z" />
<glyph unicode="&#xc8;" horiz-adv-x="1110" d="M137 0v1366h877v-190h-670v-392h571v-182h-571v-403h670v-199h-877zM217 1735h213l240 -256h-148z" />
<glyph unicode="&#xc9;" horiz-adv-x="1110" d="M137 0v1366h877v-190h-670v-392h571v-182h-571v-403h670v-199h-877zM475 1479l238 256h215l-310 -256h-143z" />
<glyph unicode="&#xca;" horiz-adv-x="1110" d="M137 0v1366h877v-190h-670v-392h571v-182h-571v-403h670v-199h-877zM244 1483l243 272h181l241 -272h-157l-179 194l-174 -194h-155z" />
<glyph unicode="&#xcb;" horiz-adv-x="1110" d="M137 0v1366h877v-190h-670v-392h571v-182h-571v-403h670v-199h-877zM291 1466v195h194v-195h-194zM680 1466v195h194v-195h-194z" />
<glyph unicode="&#xcc;" horiz-adv-x="479" d="M-127 1735h213l240 -256h-148zM135 0v1366h207v-1366h-207z" />
<glyph unicode="&#xcd;" horiz-adv-x="479" d="M137 0v1366h207v-1366h-207zM174 1479l238 256h215l-310 -256h-143z" />
<glyph unicode="&#xce;" horiz-adv-x="479" d="M-86 1483l244 272h180l242 -272h-158l-178 194l-174 -194h-156zM137 0v1366h207v-1366h-207z" />
<glyph unicode="&#xcf;" horiz-adv-x="479" d="M-23 1466v195h175v-195h-175zM137 0v1366h207v-1366h-207zM330 1466v195h174v-195h-174z" />
<glyph unicode="&#xd0;" horiz-adv-x="1382" d="M-16 621v165h145v580h522q283 0 449 -154q199 -184 198 -520q0 -344 -192 -532q-162 -160 -463 -160h-514v621h-145zM342 178h276q211 0 324 109q141 137 141 397q0 262 -149 397q-117 106 -322 107h-270v-402h207v-165h-207v-443z" />
<glyph unicode="&#xd1;" horiz-adv-x="1296" d="M137 0v1366h197l618 -973v973h207v-1366h-192l-623 975v-975h-207zM383 1505q14 94 65.5 150.5t122.5 56.5q55 0 129 -43q88 -51 127 -51q75 0 93 92h88q-31 -197 -164 -197q-51 0 -178 60q-61 29 -99 29q-78 0 -94 -97h-90z" />
<glyph unicode="&#xd2;" horiz-adv-x="1181" d="M104 492v395q0 205 141.5 348t344.5 143q209 0 349 -141t140 -350v-428q0 -145 -100 -279q-145 -193 -387 -192q-131 0 -245 66.5t-178.5 179.5t-64.5 258zM225 1735h213l240 -256h-148zM311 477q0 -115 82 -197.5t199 -82.5q119 0 199.5 85t80.5 210v368q0 76 -6 103.5 t-35 72.5q-82 135 -239 135q-119 0 -200 -81.5t-81 -202.5v-410z" />
<glyph unicode="&#xd3;" horiz-adv-x="1181" d="M104 492v395q0 205 141.5 348t344.5 143q209 0 349 -141t140 -350v-428q0 -145 -100 -279q-145 -193 -387 -192q-131 0 -245 66.5t-178.5 179.5t-64.5 258zM311 477q0 -115 82 -197.5t199 -82.5q119 0 199.5 85t80.5 210v368q0 76 -6 103.5t-35 72.5q-82 135 -239 135 q-119 0 -200 -81.5t-81 -202.5v-410zM532 1479l238 256h215l-309 -256h-144z" />
<glyph unicode="&#xd4;" horiz-adv-x="1181" d="M104 492v395q0 205 141.5 348t344.5 143q209 0 349 -141t140 -350v-428q0 -145 -100 -279q-145 -193 -387 -192q-131 0 -245 66.5t-178.5 179.5t-64.5 258zM266 1483l244 272h180l242 -272h-158l-178 194l-174 -194h-156zM311 477q0 -115 82 -197.5t199 -82.5 q119 0 199.5 85t80.5 210v368q0 76 -6 103.5t-35 72.5q-82 135 -239 135q-119 0 -200 -81.5t-81 -202.5v-410z" />
<glyph unicode="&#xd5;" horiz-adv-x="1181" d="M104 492v395q0 205 141.5 348t344.5 143q209 0 349 -141t140 -350v-428q0 -145 -100 -279q-145 -193 -387 -192q-131 0 -245 66.5t-178.5 179.5t-64.5 258zM307 1505q14 94 65.5 150.5t123.5 56.5q55 0 129 -43q88 -51 127 -51q74 0 92 92h88q-31 -197 -164 -197 q-51 0 -178 60q-61 29 -98 29q-78 0 -95 -97h-90zM311 477q0 -115 82 -197.5t199 -82.5q119 0 199.5 85t80.5 210v368q0 76 -6 103.5t-35 72.5q-82 135 -239 135q-119 0 -200 -81.5t-81 -202.5v-410z" />
<glyph unicode="&#xd6;" horiz-adv-x="1181" d="M104 492v395q0 205 141.5 348t344.5 143q209 0 349 -141t140 -350v-428q0 -145 -100 -279q-145 -193 -387 -192q-131 0 -245 66.5t-178.5 179.5t-64.5 258zM293 1466v195h194v-195h-194zM311 477q0 -115 82 -197.5t199 -82.5q119 0 199.5 85t80.5 210v368q0 76 -6 103.5 t-35 72.5q-82 135 -239 135q-119 0 -200 -81.5t-81 -202.5v-410zM682 1466v195h195v-195h-195z" />
<glyph unicode="&#xd7;" d="M117 391l321 320l-319 317l76 76l317 -318l319 320l76 -78l-319 -319l319 -318l-76 -76l-317 320l-319 -320z" />
<glyph unicode="&#xd8;" horiz-adv-x="1181" d="M74 37l114 164q-84 129 -84 291v395q0 205 141.5 348t344.5 143q190 0 334 -127l94 135l92 -63l-111 -158q80 -127 80 -278v-428q0 -145 -100 -279q-145 -193 -387 -192q-188 0 -328 127l-100 -142zM311 477q1 -41 13 -82l479 682q-88 94 -211 94q-119 0 -200 -81.5 t-81 -202.5v-410zM385 289q84 -92 207 -92q119 0 199.5 85t80.5 210v368q0 80 -10 111z" />
<glyph unicode="&#xd9;" horiz-adv-x="1234" d="M129 479v887h207v-887q0 -117 83 -199.5t199 -82.5q121 0 199 79.5t78 202.5v887h209v-887q0 -203 -143.5 -347t-344.5 -144t-344 144t-143 347zM270 1735h213l240 -256h-148z" />
<glyph unicode="&#xda;" horiz-adv-x="1234" d="M129 479v887h207v-887q0 -117 83 -199.5t199 -82.5q121 0 199 79.5t78 202.5v887h209v-887q0 -203 -143.5 -347t-344.5 -144t-344 144t-143 347zM537 1479l237 256h215l-309 -256h-143z" />
<glyph unicode="&#xdb;" horiz-adv-x="1234" d="M129 479v887h207v-887q0 -117 83 -199.5t199 -82.5q121 0 199 79.5t78 202.5v887h209v-887q0 -203 -143.5 -347t-344.5 -144t-344 144t-143 347zM305 1483l244 272h180l242 -272h-158l-178 194l-174 -194h-156z" />
<glyph unicode="&#xdc;" horiz-adv-x="1234" d="M129 479v887h207v-887q0 -117 83 -199.5t199 -82.5q121 0 199 79.5t78 202.5v887h209v-887q0 -203 -143.5 -347t-344.5 -144t-344 144t-143 347zM332 1466v195h194v-195h-194zM721 1466v195h194v-195h-194z" />
<glyph unicode="&#xdd;" horiz-adv-x="966" d="M-25 1366h222l292 -604l293 604h217l-411 -801v-565h-197v565zM416 1479l237 256h215l-309 -256h-143z" />
<glyph unicode="&#xde;" horiz-adv-x="1175" d="M129 0v1366h211v-164h319q219 0 345 -113.5t126 -310.5q0 -186 -122.5 -298.5t-327.5 -112.5h-340v-367h-211zM340 532h276q125 0 193 43q111 70 111 207q0 133 -89 197q-68 49 -202 49h-289v-496z" />
<glyph unicode="&#xdf;" horiz-adv-x="983" d="M109 0v1061q0 150 103 233.5t290 83.5q184 0 286.5 -86t102.5 -239q0 -168 -137 -209q135 -70 135 -199v-369q0 -117 -78 -196.5t-193 -79.5h-120v184h90q106 0 106 113v348q0 100 -116 100h-103v183h88q74 0 103.5 25.5t29.5 88.5q0 51 -12 76q-31 66 -180 66 q-201 0 -201 -129v-1055h-194z" />
<glyph unicode="&#xe0;" horiz-adv-x="940" d="M51 289q0 84 47 156.5t123 109.5q57 27 158 27h258v73q0 76 -29 101q-43 39 -162 39q-76 0 -104 -9q-53 -12 -80 -59l-153 123q90 137 337 137q190 0 285 -82q102 -88 103 -227v-678h-197v96q-66 -109 -234 -108q-156 0 -254 84t-98 217zM147 1401h193l213 -279h-125z M236 301q0 -129 198 -129q147 0 184 59q18 23 19 107v84h-254q-61 0 -88 -14q-59 -33 -59 -107z" />
<glyph unicode="&#xe1;" horiz-adv-x="940" d="M51 289q0 84 47 156.5t123 109.5q57 27 158 27h258v73q0 76 -29 101q-43 39 -162 39q-76 0 -104 -9q-53 -12 -80 -59l-153 123q90 137 337 137q190 0 285 -82q102 -88 103 -227v-678h-197v96q-66 -109 -234 -108q-156 0 -254 84t-98 217zM236 301q0 -129 198 -129 q147 0 184 59q18 23 19 107v84h-254q-61 0 -88 -14q-59 -33 -59 -107zM408 1122l210 279h193l-281 -279h-122z" />
<glyph unicode="&#xe2;" horiz-adv-x="940" d="M51 289q0 84 47 156.5t123 109.5q57 27 158 27h258v73q0 76 -29 101q-43 39 -162 39q-76 0 -104 -9q-53 -12 -80 -59l-153 123q90 137 337 137q190 0 285 -82q102 -88 103 -227v-678h-197v96q-66 -109 -234 -108q-156 0 -254 84t-98 217zM190 1128l213 277h164l211 -277 h-149l-148 195l-143 -195h-148zM236 301q0 -129 198 -129q147 0 184 59q18 23 19 107v84h-254q-61 0 -88 -14q-59 -33 -59 -107z" />
<glyph unicode="&#xe4;" horiz-adv-x="937" d="M49 289q0 84 47 156.5t123 109.5q57 27 158 27h258v73q0 76 -29 101q-43 39 -162 39q-76 0 -104 -9q-53 -12 -80 -59l-154 123q90 137 338 137q190 0 285 -82q102 -88 102 -227v-678h-196v96q-66 -109 -234 -108q-156 0 -254 84t-98 217zM184 1174v192h195v-192h-195z M233 301q0 -129 199 -129q147 0 184 59q18 23 19 107v84h-254q-61 0 -88 -14q-59 -33 -60 -107zM575 1174v192h195v-192h-195z" />
<glyph unicode="&#xe5;" horiz-adv-x="940" d="M51 289q0 84 47 156.5t123 109.5q57 27 158 27h258v73q0 76 -29 101q-43 39 -162 39q-76 0 -104 -9q-53 -12 -80 -59l-153 123q90 137 337 137q190 0 285 -82q102 -88 103 -227v-678h-197v96q-66 -109 -234 -108q-156 0 -254 84t-98 217zM236 301q0 -129 198 -129 q147 0 184 59q18 23 19 107v84h-254q-61 0 -88 -14q-59 -33 -59 -107zM274 1294q0 88 61.5 148.5t151.5 60.5q84 0 145.5 -62.5t61.5 -146.5q0 -88 -61.5 -149.5t-147.5 -61.5q-88 0 -149.5 61.5t-61.5 149.5zM358 1294q0 -53 37 -90t90 -37q51 0 88 38t37 89t-37 88t-88 37 q-53 0 -90 -36.5t-37 -88.5z" />
<glyph unicode="&#xe6;" horiz-adv-x="1505" d="M51 291q0 82 47 154.5t123 109.5q55 27 158 27h258v73q0 74 -29 101q-45 41 -162 41q-76 0 -104 -9q-53 -12 -80 -59l-153 123q88 135 335 135q121 0 188.5 -28.5t121.5 -100.5q115 129 284 129q172 0 285 -121t113 -303v-145h-611v-27q0 -90 66.5 -149.5t167.5 -59.5 q119 0 205 94l149 -126q-135 -162 -354 -162q-231 0 -350 194q-8 -18 -25 -51q-84 -143 -289 -143q-150 0 -247 86t-97 217zM236 303q0 -131 198 -131q145 0 184 59q18 29 19 109v82h-254q-68 0 -88 -12q-59 -35 -59 -107zM825 590h416q-4 90 -62.5 148.5t-146.5 58.5 q-86 0 -143.5 -56.5t-63.5 -150.5z" />
<glyph unicode="&#xe8;" horiz-adv-x="948" d="M74 418v172q0 164 118.5 280.5t284.5 116.5q174 0 288 -119.5t114 -302.5v-147h-609v-27q0 -90 65.5 -149.5t166.5 -59.5q119 0 205 94l149 -126q-135 -162 -356 -162q-236 0 -359 184q-68 100 -67 246zM158 1401h192l213 -279h-125zM268 590h416q-2 90 -61.5 148.5 t-145.5 58.5q-88 0 -144.5 -56.5t-64.5 -150.5z" />
<glyph unicode="&#xe9;" horiz-adv-x="948" d="M74 418v172q0 164 118.5 280.5t284.5 116.5q174 0 288 -119.5t114 -302.5v-147h-609v-27q0 -90 65.5 -149.5t166.5 -59.5q119 0 205 94l149 -126q-135 -162 -356 -162q-236 0 -359 184q-68 100 -67 246zM268 590h416q-2 90 -61.5 148.5t-145.5 58.5q-88 0 -144.5 -56.5 t-64.5 -150.5zM418 1122l211 279h192l-280 -279h-123z" />
<glyph unicode="&#xea;" horiz-adv-x="948" d="M74 418v172q0 164 118.5 280.5t284.5 116.5q174 0 288 -119.5t114 -302.5v-147h-609v-27q0 -90 65.5 -149.5t166.5 -59.5q119 0 205 94l149 -126q-135 -162 -356 -162q-236 0 -359 184q-68 100 -67 246zM195 1128l213 277h163l211 -277h-149l-148 195l-143 -195h-147z M268 590h416q-2 90 -61.5 148.5t-145.5 58.5q-88 0 -144.5 -56.5t-64.5 -150.5z" />
<glyph unicode="&#xeb;" horiz-adv-x="948" d="M74 418v172q0 164 118.5 280.5t284.5 116.5q174 0 288 -119.5t114 -302.5v-147h-609v-27q0 -90 65.5 -149.5t166.5 -59.5q119 0 205 94l149 -126q-135 -162 -356 -162q-236 0 -359 184q-68 100 -67 246zM219 1163v228h170v-228h-170zM268 590h416q-2 90 -61.5 148.5 t-145.5 58.5q-88 0 -144.5 -56.5t-64.5 -150.5zM588 1163v228h170v-228h-170z" />
<glyph unicode="&#xec;" horiz-adv-x="409" d="M-125 1401h193l213 -279h-125zM109 0v975h194v-975h-194z" />
<glyph unicode="&#xed;" horiz-adv-x="409" d="M109 0v975h194v-975h-194zM156 1122l211 279h192l-280 -279h-123z" />
<glyph unicode="&#xee;" horiz-adv-x="409" d="M-76 1128l213 277h164l211 -277h-150l-147 195l-143 -195h-148zM106 0v975h195v-975h-195z" />
<glyph unicode="&#xef;" horiz-adv-x="409" d="M-10 1163v228h155v-228h-155zM109 0v975h194v-975h-194zM276 1163v228h158v-228h-158z" />
<glyph unicode="&#xf0;" horiz-adv-x="1097" d="M70 479q0 283 190 416q39 29 122 54.5t112 19.5q141 -33 168.5 -41t56.5 -31q-100 178 -246 285l-199 -144l-47 70l170 117q-89 59 -198 86l34 73l33 -8q68 -18 197 -67l33 -17l202 144l47 -68l-163 -115q180 -109 264 -213q184 -225 184 -524q0 -213 -106 -356 q-141 -190 -375 -191q-215 0 -347 140.5t-132 369.5zM264 479q0 -170 78 -270t209 -100t207 104t76 285q-1 368 -271 368q-137 0 -218 -105.5t-81 -281.5z" />
<glyph unicode="&#xf2;" horiz-adv-x="952" d="M76 387v207q0 162 118.5 277.5t284.5 115.5q164 0 283 -116.5t119 -276.5v-207q0 -164 -119 -281.5t-283 -117.5q-168 0 -285.5 116.5t-117.5 282.5zM147 1401h193l213 -279h-125zM270 387q0 -84 61.5 -144.5t147.5 -60.5q82 0 144.5 61.5t62.5 143.5v207 q0 80 -61.5 139.5t-145.5 59.5t-146.5 -59.5t-62.5 -139.5v-207z" />
<glyph unicode="&#xf3;" horiz-adv-x="952" d="M76 387v207q0 162 118.5 277.5t284.5 115.5q164 0 283 -116.5t119 -276.5v-207q0 -164 -119 -281.5t-283 -117.5q-168 0 -285.5 116.5t-117.5 282.5zM270 387q0 -84 61.5 -144.5t147.5 -60.5q82 0 144.5 61.5t62.5 143.5v207q0 80 -61.5 139.5t-145.5 59.5t-146.5 -59.5 t-62.5 -139.5v-207zM422 1122l211 279h192l-280 -279h-123z" />
<glyph unicode="&#xf4;" horiz-adv-x="952" d="M76 387v207q0 162 118.5 277.5t284.5 115.5q164 0 283 -116.5t119 -276.5v-207q0 -164 -119 -281.5t-283 -117.5q-168 0 -285.5 116.5t-117.5 282.5zM197 1128l213 277h163l211 -277h-149l-148 195l-143 -195h-147zM270 387q0 -84 61.5 -144.5t147.5 -60.5 q82 0 144.5 61.5t62.5 143.5v207q0 80 -61.5 139.5t-145.5 59.5t-146.5 -59.5t-62.5 -139.5v-207z" />
<glyph unicode="&#xf6;" horiz-adv-x="950" d="M74 387v207q0 162 118.5 277.5t284.5 115.5q164 0 283 -116.5t119 -276.5v-207q0 -164 -119 -281.5t-283 -117.5q-168 0 -285.5 116.5t-117.5 282.5zM205 1174v192h194v-192h-194zM268 387q0 -84 61.5 -144.5t147.5 -60.5q84 0 145.5 60.5t61.5 144.5v207 q0 80 -61.5 139.5t-145.5 59.5t-146.5 -59.5t-62.5 -139.5v-207zM594 1174v192h194v-192h-194z" />
<glyph unicode="&#xf7;" d="M39 657v107h948v-107h-948zM422 340q0 39 27.5 65.5t66.5 26.5q37 0 63.5 -26.5t26.5 -65.5t-26.5 -65.5t-65.5 -26.5t-65.5 26.5t-26.5 65.5zM422 1079q0 39 27.5 65.5t66.5 26.5q37 0 63.5 -27.5t26.5 -64.5t-27.5 -64.5t-64.5 -27.5t-64.5 27.5t-27.5 64.5z" />
<glyph unicode="&#xf8;" horiz-adv-x="952" d="M76 387v207q0 162 118.5 277.5t284.5 115.5q127 0 234 -74l71 105l84 -60l-82 -114q94 -117 95 -250v-207q0 -164 -119 -281.5t-283 -117.5q-129 0 -239 78l-68 -101l-84 60l78 110q-90 115 -90 252zM270 387q1 -29 17 -78l313 445q-55 39 -119 39q-84 0 -147.5 -59.5 t-63.5 -139.5v-207zM352 225q57 -43 127 -43q82 0 144.5 61.5t62.5 143.5v207q0 41 -18 80z" />
<glyph unicode="&#xf9;" horiz-adv-x="993" d="M104 346v629h195v-563q0 -90 27 -133q59 -94 170 -95q121 0 174 105q20 41 20 135v551h195v-975h-195v111q-100 -123 -256 -123q-96 0 -180 55t-125 143q-25 55 -25 160zM193 1401h192l213 -279h-125z" />
<glyph unicode="&#xfa;" horiz-adv-x="993" d="M104 346v629h195v-563q0 -90 27 -133q59 -94 170 -95q121 0 174 105q20 41 20 135v551h195v-975h-195v111q-100 -123 -256 -123q-96 0 -180 55t-125 143q-25 55 -25 160zM426 1122l211 279h192l-280 -279h-123z" />
<glyph unicode="&#xfb;" horiz-adv-x="993" d="M104 346v629h195v-563q0 -90 27 -133q59 -94 170 -95q121 0 174 105q20 41 20 135v551h195v-975h-195v111q-100 -123 -256 -123q-96 0 -180 55t-125 143q-25 55 -25 160zM215 1128l213 277h164l211 -277h-150l-147 195l-144 -195h-147z" />
<glyph unicode="&#xfc;" horiz-adv-x="993" d="M104 346v629h195v-563q0 -90 27 -133q59 -94 170 -95q121 0 174 105q20 41 20 135v551h195v-975h-195v111q-100 -123 -256 -123q-96 0 -180 55t-125 143q-25 55 -25 160zM209 1174v192h194v-192h-194zM598 1174v192h195v-192h-195z" />
<glyph unicode="&#xfd;" horiz-adv-x="870" d="M2 975h207l229 -678l234 678h209l-416 -1165q-37 -104 -105.5 -151.5t-179.5 -47.5h-59v184h31q68 0 97.5 18.5t51.5 80.5l51 145zM373 1122l211 279h192l-280 -279h-123z" />
<glyph unicode="&#xfe;" horiz-adv-x="1150" d="M125 -332v1698h184v-592q121 233 346 234q195 0 311.5 -142.5t116.5 -380.5q0 -236 -116.5 -377t-311.5 -141q-129 0 -241 90q-61 49 -99 131v-520h-190zM313 469q0 -162 79 -258t212 -96q131 0 209 99t78 267t-78 268.5t-209 100.5q-135 0 -213 -102.5t-78 -278.5z" />
<glyph unicode="&#xff;" horiz-adv-x="870" d="M2 975h207l229 -678l234 678h209l-416 -1165q-37 -104 -105.5 -151.5t-179.5 -47.5h-59v184h31q68 0 97.5 18.5t51.5 80.5l51 145zM186 1163v228h170v-228h-170zM555 1163v228h170v-228h-170z" />
<glyph unicode="&#x152;" horiz-adv-x="1837" d="M104 494v395q0 203 141.5 346t342.5 143q174 0 303 -110v98h850v-190h-670v-392h571v-182h-571v-403h670v-199h-850v102q-127 -115 -303 -114q-129 0 -242 66.5t-177.5 179t-64.5 260.5zM311 479q0 -117 82 -199.5t199 -82.5q119 0 199.5 85t80.5 212v368q0 74 -7 101.5 t-34 72.5q-84 135 -239 135q-119 0 -200 -81.5t-81 -200.5v-410z" />
<glyph unicode="&#x153;" horiz-adv-x="1550" d="M76 389v205q0 162 118.5 277.5t282.5 115.5q186 0 303 -153q123 154 305 153q170 0 283 -119.5t113 -302.5v-147h-607v-27q0 -90 66 -149.5t166 -59.5q119 0 205 94l147 -126q-133 -162 -352 -162q-199 0 -326 157q-117 -158 -305 -157q-164 0 -281.5 117.5t-117.5 283.5 zM270 389q0 -84 61.5 -144.5t147.5 -60.5q84 0 145.5 61.5t61.5 143.5v205q0 82 -61.5 141.5t-145.5 59.5t-146.5 -59.5t-62.5 -141.5v-205zM874 590h412q-2 88 -60.5 147.5t-144.5 59.5q-88 0 -144.5 -56.5t-62.5 -150.5z" />
<glyph unicode="&#x178;" horiz-adv-x="966" d="M-25 1366h222l292 -604l293 604h217l-411 -801v-565h-197v565zM205 1466v195h194v-195h-194zM594 1466v195h194v-195h-194z" />
<glyph unicode="&#x2c6;" d="M219 1128l213 277h164l211 -277h-150l-147 195l-143 -195h-148z" />
<glyph unicode="&#x2dc;" d="M225 1174q33 199 172 198q53 0 121 -41q82 -49 115 -49q55 0 82 88h84q-37 -188 -150 -188q-47 0 -164 59q-53 27 -90 27q-66 0 -84 -94h-86z" />
<glyph unicode="&#x2000;" horiz-adv-x="934" />
<glyph unicode="&#x2001;" horiz-adv-x="1868" />
<glyph unicode="&#x2002;" horiz-adv-x="934" />
<glyph unicode="&#x2003;" horiz-adv-x="1868" />
<glyph unicode="&#x2004;" horiz-adv-x="622" />
<glyph unicode="&#x2005;" horiz-adv-x="467" />
<glyph unicode="&#x2006;" horiz-adv-x="311" />
<glyph unicode="&#x2007;" horiz-adv-x="311" />
<glyph unicode="&#x2008;" horiz-adv-x="233" />
<glyph unicode="&#x2009;" horiz-adv-x="373" />
<glyph unicode="&#x200a;" horiz-adv-x="103" />
<glyph unicode="&#x2010;" horiz-adv-x="851" d="M133 438v195h584v-195h-584z" />
<glyph unicode="&#x2011;" horiz-adv-x="851" d="M133 438v195h584v-195h-584z" />
<glyph unicode="&#x2012;" horiz-adv-x="851" d="M133 438v195h584v-195h-584z" />
<glyph unicode="&#x2013;" horiz-adv-x="1095" d="M133 438v195h828v-195h-828z" />
<glyph unicode="&#x2014;" horiz-adv-x="1441" d="M0 422v168h1442v-168h-1442z" />
<glyph unicode="&#x2018;" horiz-adv-x="428" d="M127 846v217q0 135 46 207.5t153 105.5v-102q-84 -37 -90 -174h67v-254h-176z" />
<glyph unicode="&#x2019;" horiz-adv-x="456" d="M135 1053v313h195v-195z" />
<glyph unicode="&#x201a;" horiz-adv-x="450" d="M131 -147v342h195v-195z" />
<glyph unicode="&#x201c;" horiz-adv-x="743" d="M127 844v217q0 139 54.5 213t144.5 100v-102q-84 -37 -90 -174h67v-254h-176zM442 844v205q0 264 199 325v-102q-84 -33 -90 -174h67v-254h-176z" />
<glyph unicode="&#x201d;" horiz-adv-x="747" d="M135 1053v313h195v-195zM426 1053v313h195v-195z" />
<glyph unicode="&#x201e;" horiz-adv-x="743" d="M131 -121v316h195v-195zM422 -121v316h194v-195z" />
<glyph unicode="&#x2022;" horiz-adv-x="1366" d="M401 692q0 119 84 202t205 83q113 0 196 -84t83 -199q0 -119 -83 -201.5t-200 -82.5t-201 82.5t-84 199.5z" />
<glyph unicode="&#x2026;" horiz-adv-x="1357" d="M129 0v193h197v-193h-197zM582 0v193h196v-193h-196zM1034 0v193h197v-193h-197z" />
<glyph unicode="&#x202f;" horiz-adv-x="373" />
<glyph unicode="&#x2039;" horiz-adv-x="485" d="M109 416v174l243 256v-164l-153 -178l153 -170v-168z" />
<glyph unicode="&#x203a;" horiz-adv-x="485" d="M133 166v162l156 180l-156 170v168l246 -250v-176z" />
<glyph unicode="&#x205f;" horiz-adv-x="467" />
<glyph unicode="&#x20ac;" horiz-adv-x="1337" d="M117 567l35 82h102v82h-137l35 82h102v84q0 199 144.5 340t344.5 141q178 0 308.5 -109.5t171.5 -293.5h-213q-31 90 -101.5 143t-165.5 53q-123 0 -201.5 -81.5t-78.5 -208.5v-68h551l-35 -82h-516v-82h481l-35 -82h-446v-80q0 -125 80 -207.5t200 -82.5q193 0 267 196 h213q-25 -172 -164 -288.5t-318 -116.5q-129 0 -241.5 63.5t-179 175t-66.5 260.5v80h-137z" />
<glyph unicode="&#x2122;" horiz-adv-x="1583" d="M16 1245v121h613v-121h-234v-698h-145v698h-234zM743 547v819h136l237 -512l238 512h133v-819h-144v479l-169 -364h-117l-168 364v-479h-146z" />
<glyph unicode="&#xe000;" horiz-adv-x="972" d="M0 0v973h973v-973h-973z" />
<glyph unicode="&#xfb03;" horiz-adv-x="1519" d="M51 819v156h96v119q0 92 25 139q49 96 162 125q33 8 96 8h109v-178h-107q-76 0 -84 -37q-4 -14 -4 -43v-133h195v-156h-195v-819h-197v819h-96zM606 819v156h99v119q0 92 24 139q49 96 162 125q33 8 94 8h109v-178h-105q-76 0 -84 -37q-4 -14 -4 -43v-133h193v-156h-193 v-819h-196v819h-99zM1217 0v975h194v-975h-194zM1217 1174v192h194v-192h-194z" />
<glyph unicode="&#xfb04;" horiz-adv-x="1591" d="M51 819v156h96v119q0 92 25 139q49 96 162 125q33 8 96 8h109v-178h-107q-76 0 -84 -37q-4 -14 -4 -43v-133h195v-156h-195v-819h-197v819h-96zM606 819v156h99v119q0 92 24 139q49 96 162 125q33 8 94 8h109v-178h-105q-76 0 -84 -37q-4 -14 -4 -43v-133h193v-156h-193 v-819h-196v819h-99zM1217 256v1110h194v-1075q0 -70 16.5 -88.5t83.5 -18.5h48v-184h-119q-111 0 -176 82q-31 39 -39 68.5t-8 105.5z" />
</font>
</defs>
</svg>
